<svg width="16" height="24" viewBox="0 0 16 24" fill="none" xmlns="http://www.w3.org/2000/svg">
<path d="M14.4201 14.9672H5.11543L5.58262 14.0156L13.3451 14.0016C13.6076 14.0016 13.8326 13.8141 13.8795 13.5547L14.9545 7.5375C14.9826 7.37969 14.9404 7.21719 14.8373 7.09375C14.7863 7.033 14.7228 6.98407 14.651 6.95034C14.5792 6.91661 14.501 6.8989 14.4217 6.89844L4.54668 6.86562L4.4623 6.46875C4.40918 6.21562 4.18105 6.03125 3.92168 6.03125H1.50762C1.36133 6.03125 1.22104 6.08936 1.1176 6.1928C1.01417 6.29624 0.956055 6.43653 0.956055 6.58281C0.956055 6.7291 1.01417 6.86939 1.1176 6.97283C1.22104 7.07626 1.36133 7.13438 1.50762 7.13438H3.4748L3.84355 8.8875L4.75137 13.2828L3.58262 15.1906C3.52192 15.2725 3.48536 15.3698 3.47708 15.4714C3.4688 15.573 3.48912 15.675 3.53574 15.7656C3.62949 15.9516 3.81855 16.0688 4.02793 16.0688H5.00918C4.79999 16.3466 4.687 16.685 4.6873 17.0328C4.6873 17.9172 5.40605 18.6359 6.29043 18.6359C7.1748 18.6359 7.89355 17.9172 7.89355 17.0328C7.89355 16.6844 7.77793 16.3453 7.57168 16.0688H10.0889C9.87968 16.3466 9.76669 16.685 9.76699 17.0328C9.76699 17.9172 10.4857 18.6359 11.3701 18.6359C12.2545 18.6359 12.9732 17.9172 12.9732 17.0328C12.9732 16.6844 12.8576 16.3453 12.6514 16.0688H14.4217C14.7248 16.0688 14.9732 15.8219 14.9732 15.5172C14.9723 15.3711 14.9137 15.2312 14.81 15.1282C14.7064 15.0251 14.5663 14.9673 14.4201 14.9672V14.9672ZM4.77637 7.95312L13.7732 7.98281L12.892 12.9172L5.8248 12.9297L4.77637 7.95312ZM6.29043 17.5266C6.01855 17.5266 5.79668 17.3047 5.79668 17.0328C5.79668 16.7609 6.01855 16.5391 6.29043 16.5391C6.5623 16.5391 6.78418 16.7609 6.78418 17.0328C6.78418 17.1638 6.73216 17.2894 6.63956 17.3819C6.54697 17.4745 6.42138 17.5266 6.29043 17.5266V17.5266ZM11.3701 17.5266C11.0982 17.5266 10.8764 17.3047 10.8764 17.0328C10.8764 16.7609 11.0982 16.5391 11.3701 16.5391C11.642 16.5391 11.8639 16.7609 11.8639 17.0328C11.8639 17.1638 11.8118 17.2894 11.7193 17.3819C11.6267 17.4745 11.5011 17.5266 11.3701 17.5266V17.5266Z" fill="#8C8C8C"/>
</svg>
